<svg width="53" height="58" viewBox="0 0 53 58" fill="none" xmlns="http://www.w3.org/2000/svg">
<path d="M45.9382 3.39844C45.5746 3.39844 45.2174 3.42516 44.8685 3.47661C43.7098 3.64751 42.4074 2.87046 42.4074 1.69922V1.69922C42.4074 0.760797 41.617 0 40.642 0H12.3953C11.4202 0 10.6298 0.760797 10.6298 1.69922V1.69922C10.6298 2.87572 9.31653 3.65491 8.15314 3.47981C7.79736 3.42626 7.43285 3.39844 7.06166 3.39844C3.16786 3.39844 0 6.44752 0 10.1953C0 13.054 0.880118 15.8161 2.54514 18.1832C4.12728 20.4325 5.91532 21.7521 7.68945 22.6727C10.1958 23.9733 12.2499 25.9625 14.0398 28.1465C15.0119 29.3326 16.1623 30.3773 17.4517 31.2429C19.375 32.534 20.7434 34.6988 20.3699 36.985L19.7541 40.7553C19.7303 40.9009 19.6045 41.0078 19.457 41.0078V41.0078C16.5366 41.0078 14.1607 43.2946 14.1607 46.1055V52.8361C14.1607 53.8112 13.3703 54.6016 12.3953 54.6016V54.6016C11.4204 54.6016 10.6299 55.3624 10.6299 56.3008C10.6299 57.2392 11.4204 58 12.3953 58H40.642C41.617 58 42.4074 57.2392 42.4074 56.3008C42.4074 55.3624 41.617 54.6016 40.642 54.6016V54.6016C39.667 54.6016 38.8766 53.8112 38.8766 52.8361V46.1055C38.8766 43.2946 36.5007 41.0078 33.5803 41.0078V41.0078C33.4328 41.0078 33.307 40.9009 33.2832 40.7553L32.6674 36.985C32.294 34.6988 33.6623 32.5341 35.5856 31.2431C36.8771 30.3761 38.0292 29.3294 39.0023 28.141C40.7957 25.9508 42.8576 23.9635 45.3641 22.6481C47.1048 21.7345 48.8874 20.4117 50.4549 18.1832C52.1199 15.8161 53 13.0539 53 10.1953C52.9999 6.44752 49.832 3.39844 45.9382 3.39844ZM10.6167 20.2691C6.31218 18.6118 3.53083 14.6577 3.53083 10.1953C3.53083 8.32141 5.11476 6.79688 7.06166 6.79688C9.00856 6.79688 10.5925 8.32141 10.5925 10.1953V10.1953C10.5925 10.4287 10.6299 10.6615 10.6299 10.8949V18.6914C10.6299 19.2003 10.6564 19.7034 10.7072 20.1996C10.7123 20.2493 10.6633 20.287 10.6167 20.2691V20.2691ZM35.3457 52.9023C35.3457 53.8408 34.585 54.6016 33.6465 54.6016H19.3908C18.4523 54.6016 17.6916 53.8408 17.6916 52.9023V52.9023C17.6916 51.9639 18.4523 51.2031 19.3908 51.2031H33.6465C34.585 51.2031 35.3457 51.9639 35.3457 52.9023V52.9023ZM33.5803 44.4062C34.5538 44.4062 35.3457 45.1685 35.3457 46.1055V46.1055C35.3457 47.0439 34.585 47.8047 33.6465 47.8047H19.3908C18.4523 47.8047 17.6916 47.0439 17.6916 46.1055V46.1055C17.6916 45.1685 18.4835 44.4062 19.457 44.4062C20.4148 44.4062 31.3341 44.4062 33.5803 44.4062ZM26.5187 41.0078C24.825 41.0078 23.5349 39.4899 23.8079 37.8184L24.1217 35.8973C24.3079 34.7576 25.3639 33.9844 26.5187 33.9844V33.9844V33.9844C27.6735 33.9844 28.7294 34.7576 28.9156 35.8973L29.2294 37.8184C29.5024 39.4899 28.2123 41.0078 26.5187 41.0078V41.0078ZM38.8766 18.6914C38.8766 25.2501 33.3328 30.5859 26.5187 30.5859C19.7045 30.5859 14.1607 25.2501 14.1607 18.6914V18.6914C14.1607 13.9991 17.9646 10.1953 22.6568 10.1953H30.3805C35.0727 10.1953 38.8766 13.9991 38.8766 18.6914V18.6914ZM38.8766 5.09766C38.8766 6.03611 38.1158 6.79688 37.1773 6.79688H15.86C14.9215 6.79688 14.1607 6.03611 14.1607 5.09766V5.09766C14.1607 4.1592 14.9215 3.39844 15.86 3.39844H37.1773C38.1158 3.39844 38.8766 4.1592 38.8766 5.09766V5.09766ZM42.383 20.2691V20.2691C42.3544 20.2801 42.3242 20.2569 42.3274 20.2264C42.38 19.7215 42.4073 19.2095 42.4073 18.6914V10.1953C42.4074 8.32141 43.9913 6.79688 45.9382 6.79688C47.8851 6.79688 49.4691 8.32141 49.4691 10.1953C49.4691 14.6577 46.6877 18.6119 42.383 20.2691Z" fill="#CFC58D"/>
</svg>
