<svg width="65" height="72" viewBox="0 0 65 72" fill="none" xmlns="http://www.w3.org/2000/svg">
<path d="M62.8183 28.7554C62.3341 12.819 48.9206 0 32.5 0C16.0794 0 2.66587 12.819 2.18154 28.7554L0 30.8876V45.3477L2.16667 47.4654V57.3176C2.16667 63.0782 6.96164 67.7647 12.8556 67.7647H15.5393C16.4337 70.2295 18.8421 72 21.6667 72H26C28.8265 72 31.2361 70.227 32.1291 67.7596C32.2529 67.7617 32.3769 67.7647 32.5 67.7647C42.9633 67.7647 51.718 60.4777 53.731 50.8235H59.3974L65 45.3477V30.8876L62.8183 28.7554ZM32.5 4.23529C45.36 4.23529 56.0677 13.4088 58.1369 25.4118H53.731C51.718 15.7576 42.9633 8.47059 32.5 8.47059C22.0367 8.47059 13.282 15.7576 11.269 25.4118H6.86313C8.9323 13.4088 19.64 4.23529 32.5 4.23529V4.23529ZM49.2849 25.4118C42.2809 25.3913 37.3337 25.8082 33.2549 19.9807L31.2742 17.1511L29.5721 20.1488C27.092 24.5167 23.752 25.4118 19.5 25.4118H15.7151C17.6442 18.1132 24.4381 12.7059 32.5 12.7059C40.5619 12.7059 47.3558 18.1132 49.2849 25.4118V25.4118ZM10.8333 46.5882H7.39743L4.33333 43.5935V32.6418L7.39743 29.6471H10.8333V46.5882ZM6.5 57.3176V50.8235H11.2648C12.0805 54.7729 14.0321 58.3982 16.9233 61.31C16.3172 61.9429 15.8418 62.696 15.5393 63.5294H12.8556C9.35104 63.5294 6.5 60.7429 6.5 57.3176V57.3176ZM26 67.7647H21.6667C20.4718 67.7647 19.5 66.8149 19.5 65.6471C19.5 64.4794 20.4718 63.5294 21.6667 63.5294H26C27.1947 63.5294 28.1667 64.4794 28.1667 65.6471C28.1667 66.8149 27.1947 67.7647 26 67.7647ZM49.8333 46.5882C49.8333 55.9296 42.0576 63.5294 32.5 63.5294C32.3758 63.5294 32.2505 63.527 32.1255 63.5242C31.2296 61.0621 28.8226 59.2941 26 59.2941C21.5511 59.3037 21.622 59.2724 21.0675 59.3222C17.3059 56.0997 15.1667 51.5098 15.1667 46.5882V29.6471H19.5C23.3346 29.6471 28.0045 29.0291 31.6193 24.7292C36.3889 29.6143 42.2175 29.6471 47.4497 29.6471H49.8333V46.5882ZM60.6667 43.5935L57.6026 46.5882H54.1667V29.6471H57.6026L60.6667 32.6418V43.5935Z" fill="#CFC58D"/>
</svg>
