<svg width="51" height="70" viewBox="0 0 51 70" fill="none" xmlns="http://www.w3.org/2000/svg">
<path d="M47.0458 36.378V2.20739C47.0458 0.988321 46.3741 0 45.5455 0H5.35085C4.52231 0 3.8506 0.988321 3.8506 2.20739V39.1021C3.12689 39.2572 2.41937 39.6706 1.79347 40.3543C-0.179646 42.4129 -0.646321 47.0199 1.00644 49.8611L7.76383 61.9144C11.9467 69.1174 16.3901 69.9999 22.9958 69.9999C28.6644 69.9999 31.1987 70.0367 36.139 68.3804L40.9496 66.6875C41.7296 68.2902 42.9679 69.3284 44.36 69.3284H46.7298C49.0844 69.3284 51 66.3592 51 62.7095V42.9771C51.0001 39.4922 49.2532 36.6297 47.0458 36.378ZM40.3025 40.9188L38.3036 39.425C35.0169 36.984 31.217 36.8937 27.8785 39.1774C26.9676 39.7046 24.981 41.4731 23.9505 41.414H17.0142C14.7135 41.414 12.8416 44.1681 12.8416 47.5535V49.1632C12.8286 49.1432 12.8151 49.1242 12.8024 49.1039L7.84915 41.1931C7.5494 40.7144 7.21265 40.3138 6.85119 39.9924V18.0923H19.1285V26.184C19.1285 27.4031 19.8002 28.3914 20.6287 28.3914H30.0953C30.9239 28.3914 31.5956 27.4031 31.5956 26.184V18.0923H44.0454V36.3779C42.2925 36.5771 40.8309 38.4222 40.3025 40.9188ZM22.1288 18.0923H28.595V23.9766H22.1288V18.0923ZM44.0453 13.6776H31.5956V4.41478H44.0454L44.0453 13.6776ZM28.5951 4.41478V13.6777H22.1289V4.41478H28.5951ZM19.1284 4.41478V13.6777H6.85109V4.41478H19.1284ZM35.4427 64.086C30.879 65.624 28.1304 65.5618 23.0496 65.5618C16.8486 65.5618 13.8524 65.4143 10.0786 59.105L3.32122 47.0516C2.14583 44.7997 4.27477 42.1412 5.64239 44.1841L10.5957 52.0951C11.9048 54.1275 13.5522 55.2461 15.5826 55.3118H29.3156C30.1441 55.3118 30.8158 54.3235 30.8158 53.1044C30.8158 51.8854 30.1441 50.8971 29.3156 50.8971H15.8419V47.5532C15.8419 46.6022 16.3677 45.8285 17.0141 45.8285H23.9504C25.5131 45.9931 27.7686 44.0733 29.1434 43.1805C31.6438 41.4699 34.4898 41.5376 36.9481 43.3632L40.09 45.7113V62.4504L35.4427 64.086ZM47.9996 62.7094C47.9996 63.9248 47.43 64.9135 46.7299 64.9135H44.3601C43.66 64.9135 43.0905 63.9248 43.0905 62.7094V42.9771C43.0905 41.7617 43.6601 40.7728 44.3601 40.7728H46.7299C47.43 40.7728 47.9996 41.7616 47.9996 42.9771V62.7094Z" fill="#CFC58D"/>
</svg>
